# xmcd
#
# Track frame offsets:
#	150
#	15434
#	31651
#	48523
#	64795
#	83086
#	102960
#	117820
#	133152
#	146921
#	166055
#	180574
#	198364
#
# Disc length: 2984 seconds
#
# Revision: 1
# Processed by: cddbd v1.5.2PL0 Copyright (c) Steve Scherf et al.
# Submitted via: EZCDAudioConverter 6.0.2.1
#
DISCID=a60ba60d
DTITLE=Blackhawk - Greatest Hits and More
DYEAR=2014
DGENRE=Country
TTITLE0=Goodbye Says It All
TTITLE1=Every Once In A While
TTITLE2=Down In Flames
TTITLE3=I Sure Can Smell The Rain
TTITLE4=That's Just About Right
TTITLE5=I'm Not Strong Enough To Say No
TTITLE6=Like There Ain't No Yesterday
TTITLE7=Almost A Memory Now
TTITLE8=Big Guitar
TTITLE9=Postmarked Birmingham
TTITLE10=There You Have It
TTITLE11=Brighter
TTITLE12=Brothers Of The Southland
EXTD=
EXTT0=
EXTT1=
EXTT2=
EXTT3=
EXTT4=
EXTT5=
EXTT6=
EXTT7=
EXTT8=
EXTT9=
EXTT10=
EXTT11=
EXTT12=
PLAYORDER=
